HIERARCHY
ROOT Hip
{
    OFFSET 0.0 0.0 0.0
    CHANNELS 6 Xposition Yposition Zposition Zrotation Xrotation Yrotation
    JOINT RightHip
    {
        OFFSET -13.521650314331055 0.0 0.0
        CHANNELS 3 Zrotation Xrotation Yrotation
        JOINT RightKnee
        {
            OFFSET 0.0 0.0 -48.099876403808594
            CHANNELS 3 Zrotation Xrotation Yrotation
            JOINT RightAnkle
            {
                OFFSET 0.0 0.0 -45.817779541015625
                CHANNELS 3 Zrotation Xrotation Yrotation
                End Site
                {
                    OFFSET 0.0 -18.327112197875977 0.0
                }
            }
        }
    }
    JOINT LeftHip
    {
        OFFSET 13.521650314331055 0.0 0.0
        CHANNELS 3 Zrotation Xrotation Yrotation
        JOINT LeftKnee
        {
            OFFSET 0.0 0.0 -48.099876403808594
            CHANNELS 3 Zrotation Xrotation Yrotation
            JOINT LeftAnkle
            {
                OFFSET 0.0 0.0 -45.817779541015625
                CHANNELS 3 Zrotation Xrotation Yrotation
                End Site
                {
                    OFFSET 0.0 -18.327112197875977 0.0
                }
            }
        }
    }
    JOINT Spine
    {
        OFFSET 0.0 0.0 24.278772354125977
        CHANNELS 3 Zrotation Xrotation Yrotation
        JOINT Thorax
        {
            OFFSET 0.0 0.0 24.261747360229492
            CHANNELS 3 Zrotation Xrotation Yrotation
            JOINT Neck
            {
                OFFSET 0.0 0.0 11.935837745666504
                CHANNELS 3 Zrotation Xrotation Yrotation
                End Site
                {
                    OFFSET 0.0 0.0 4.7743353843688965
                }
            }
            JOINT LeftShoulder
            {
                OFFSET 15.132634162902832 0.0 0.0
                CHANNELS 3 Zrotation Xrotation Yrotation
                JOINT LeftElbow
                {
                    OFFSET 27.791358947753906 0.0 0.0
                    CHANNELS 3 Zrotation Xrotation Yrotation
                    JOINT LeftWrist
                    {
                        OFFSET 23.395803451538086 0.0 0.0
                        CHANNELS 3 Zrotation Xrotation Yrotation
                        End Site
                        {
                            OFFSET 9.358321189880371 0.0 0.0
                        }
                    }
                }
            }
            JOINT RightShoulder
            {
                OFFSET -15.132634162902832 0.0 0.0
                CHANNELS 3 Zrotation Xrotation Yrotation
                JOINT RightElbow
                {
                    OFFSET -27.791358947753906 0.0 0.0
                    CHANNELS 3 Zrotation Xrotation Yrotation
                    JOINT RightWrist
                    {
                        OFFSET -23.395803451538086 0.0 0.0
                        CHANNELS 3 Zrotation Xrotation Yrotation
                        End Site
                        {
                            OFFSET -9.358321189880371 0.0 0.0
                        }
                    }
                }
            }
        }
    }
}
MOTION
Frames: 6
Frame Time: 0.03333333333333333
131.92755 95.156876 90.32263 -94.67865560095086 -77.28709514083192 -119.08989379147738 1.1162785802357291 -4.498560328103135 16.149877920419673 0.27010401078466795 6.8355312321749375 15.687151080316726 -1.5902773407317584e-15 0.0 0.0 0.8071796962123261 -3.268227255971844 10.663645510263523 -0.6766870918283224 11.604681234240408 30.72457109150305 1.5902773407317584e-15 -6.460501696722767e-15 1.5902773407317584e-15 -2.417881569179803 9.679251065442148 -16.360448878470763 -5.047706272236407 2.4444766085124e-06 -3.741753551935401e-06 -49.457648745348365 -0.8962801611095195 6.469235776406907 0.7857001560189534 6.825749224200714 59.96533111409381 -61.14554036709415 -5.056794873762904e-07 -4.6592004882821446e-07 1.272221872585407e-14 6.361109362927035e-15 -7.062250076880254e-31 -41.826744748219014 -37.77316336581695 -54.34125419809967 51.210899605391596 -3.0363710179028757e-07 -2.874270601676533e-06 1.1927080055488186e-15 0.0 0.0
133.01721 95.17665 84.16284 -91.30220654796501 -74.35168267972603 -115.7407293520569 1.4290885510167903 -5.557686803342815 16.521478257271042 0.22153136063085657 5.981178369330542 13.022113748034823 1.5902773407317582e-15 1.9878466759146977e-16 -2.758691436281349e-33 0.9124648012169965 -3.5615466693503506 11.176024209410713 -0.6571722544872625 11.379051589445552 28.15356855755884 0.0 0.0 -1.5902773407317584e-15 -2.757485398164996 10.632027519238141 -16.84742603876295 -2.236406128250211 1.0839689455119817e-06 -4.010927023053762e-07 -49.097095505939 -0.46790237255808953 7.9845645176605196 -3.4386469136220845 6.982114960702239 61.06595741656193 -63.34942732519547 -1.4337005818820546e-06 1.982062503831917e-06 -6.3611093629270335e-15 0.0 0.0 -38.01144672105476 -35.891145170370514 -53.46981833039695 45.16520778505702 -2.0280303409103087e-06 -1.6647871970422023e-07 6.758678698109972e-15 1.8759101766713175e-31 3.1805546814635164e-15
134.77893 95.27052 77.8775 -87.26380624437809 -71.27618600175002 -110.89805685802003 1.8086417283256455 -7.522991902252349 15.5429914446668 0.2281610376720399 6.459062318752968 11.299836859227034 -1.5902773407317584e-15 -1.987846675914698e-16 1.5902773407317584e-15 1.0891443046366511 -4.553021814974584 10.531296559328927 -0.6131096073295895 11.581101004179533 26.22860202997304 0.0 0.0 -1.5902773407317584e-15 -3.248131547686584 13.335225415065754 -18.508820117943007 -0.86377744714783 -6.107286503454237e-06 -1.0450042479915025e-06 -43.804066997786954 0.8633974945078441 6.945702891652402 -3.526063502215609 5.289172271937722 62.8653898300635 -67.61528302264622 -1.9764081399128493e-06 -1.6125782515786997e-06 0.0 0.0 0.0 -31.553097056141507 -35.63054574709884 -50.525708354009005 40.42338949816288 2.7559658593858725e-06 1.639812723451419e-06 2.385416011097637e-15 0.0 0.0
138.78302 95.26501 68.427795 -84.37300943049023 -69.38446856965271 -107.67076086441666 2.047158074711552 -8.16779466007137 15.23426050348097 0.12527667115831276 6.244843628123509 9.248811315044877 0.0 6.361109362927033e-15 0.0 1.0954791482599004 -4.400692704792151 9.769188872447144 -0.7761210126735948 10.247522468608054 25.220385082061195 3.1805546814635164e-15 1.9878466759146977e-16 -5.517382872562698e-33 -3.720070014991056 14.609484901265704 -18.95735569345257 0.9536616159483798 3.989058108847823e-07 -4.152343272901873e-06 -42.498414207058836 1.1702715603316138 6.202897373103732 -2.5420780280466913 4.678785585494294 63.807515514890426 -70.98339932879145 3.976683371675659e-07 3.920111470375939e-06 6.3611093629270335e-15 3.1805546814635168e-15 -1.7655625192200634e-31 -32.515264233870674 -36.38722752896363 -51.984799840651355 34.86043569213698 -3.921794955160166e-06 -1.3845985879604296e-06 -7.95138670365879e-15 3.1805546814635168e-15 -3.180554681463516e-15
141.08563 95.30433 59.558228 -80.46621821986997 -67.79527720754272 -104.20292740059828 2.533285510512343 -10.00293046273241 16.007159732663727 0.18811375886241608 6.128860468537673 7.71026323145959 -1.5902773407317584e-15 -6.361109362927033e-15 -1.5902773407317584e-15 1.2547893957313427 -5.005994318110413 10.055281412973578 -0.6553831079053437 9.057931332598676 22.963164272483244 3.1805546814635168e-15 0.0 0.0 -3.8050029364894398 14.831221500261396 -19.50929723645166 2.842186000799753 -4.668244355413974e-06 1.8924739613606757e-07 -40.37786600120438 -0.6751301738185843 4.977788413186693 -4.971550771844301 5.901731761582478 64.67541975796436 -73.17036322045118 8.270331649677049e-07 5.897795011707166e-06 0.0 0.0 -6.361109362927032e-15 -31.319528235732925 -38.13364489108999 -51.3886023401969 30.01151202465357 9.786029201419492e-07 1.0738941655143615e-06 2.782985346280577e-15 -3.1805546814635168e-15 -3.1805546814635168e-15
145.18036 95.33457 52.520508 -77.17507594327209 -66.77008302491711 -101.71457379772409 3.058611139363503 -11.642561296118476 17.72104359828713 0.3387858717839742 6.603277278022447 5.531072190944983 0.0 0.0 1.5902773407317584e-15 1.4700005165097776 -5.670217173079141 10.76814054305548 -0.5905470186249021 8.685788325088833 21.14738806243857 3.1805546814635168e-15 -8.827812596100317e-32 -3.1805546814635168e-15 -3.920409593919336 14.787825655997608 -19.97912847428116 4.239531472771348 1.1240220684111453e-06 4.966929798579099e-06 -37.999036330331485 -3.606312701466826 4.877083534169165 -9.884881317967524 8.199268596287345 65.82929755432457 -74.28728377685029 -1.674141982599409e-06 -3.937180729978458e-06 0.0 0.0 0.0 -28.161382948749505 -38.271781012210205 -49.45712078102683 27.629970887918137 -8.101025771299201e-09 3.223464920649419e-07 -5.5659706925611536e-15 3.1805546814635164e-15 1.5448672043175555e-31
